name 900006_30ik_lsw.mot
datacolumns 165
datarows 4
range 0.75000000 0.77500000
cursor 1.0 1.0 0.0
keys m_key
wrap
enforce_loops no
enforce_constraints no
calc_derivatives 0.008333
event_color 1.000000 0.000000 1.000000
endheader

                time	          calcn_r_tx	          calcn_r_ty	          calcn_r_tz	          calcn_r_r1	          calcn_r_r2	          calcn_r_r3	          calcn_l_tx	          calcn_l_ty	          calcn_l_tz	          calcn_l_r1	          calcn_l_r2	          calcn_l_r3	           pelvis_tz	           pelvis_tx	           pelvis_ty	         pelvis_tilt	         pelvis_list	     pelvis_rotation	       hip_flexion_r	     hip_adduction_r	      hip_rotation_r	        knee_angle_r	       ankle_angle_r	    subtalar_angle_r	         mtp_angle_r	       hip_flexion_l	     hip_adduction_l	      hip_rotation_l	        knee_angle_l	       ankle_angle_l	    subtalar_angle_l	         mtp_angle_l	    lumbar_extension	      lumbar_bending	     lumbar_rotation	     ground_force_px	     ground_force_py	     ground_force_pz	     ground_force_vx	     ground_force_vy	     ground_force_vz	     ground_force_px	     ground_force_py	     ground_force_pz	     ground_force_vx	     ground_force_vy	     ground_force_vz	     ground_torque_x	     ground_torque_y	     ground_torque_z	     ground_torque_x	     ground_torque_y	     ground_torque_z	           midhip_px	           midhip_py	           midhip_pz	            hip_r_px	            hip_r_py	            hip_r_pz	            hip_l_px	            hip_l_py	            hip_l_pz	           knee_r_px	           knee_r_py	           knee_r_pz	           knee_l_px	           knee_l_py	           knee_l_pz	          ankle_r_px	          ankle_r_py	          ankle_r_pz	          ankle_l_px	          ankle_l_py	          ankle_l_pz	          midasis_px	          midasis_py	          midasis_pz	           asis_r_px	           asis_r_py	           asis_r_pz	           asis_l_px	           asis_l_py	           asis_l_pz	           psis_r_px	           psis_r_py	           psis_r_pz	           psis_l_px	           psis_l_py	           psis_l_pz	     epicondLat_r_px	     epicondLat_r_py	     epicondLat_r_pz	     epicondLat_l_px	     epicondLat_l_py	     epicondLat_l_pz	     epicondMed_r_px	     epicondMed_r_py	     epicondMed_r_pz	     epicondMed_l_px	     epicondMed_l_py	     epicondMed_l_pz	   malleolusLat_r_px	   malleolusLat_r_py	   malleolusLat_r_pz	   malleolusLat_l_px	   malleolusLat_l_py	   malleolusLat_l_pz	  malleolusMedv_r_px	  malleolusMedv_r_py	  malleolusMedv_r_pz	  malleolusMedv_l_px	  malleolusMedv_l_py	  malleolusMedv_l_pz	             neck_px	             neck_py	             neck_pz	    subclavicle_r_px	    subclavicle_r_py	    subclavicle_r_pz	    subclavicle_l_px	    subclavicle_l_py	    subclavicle_l_pz	     sternalnotch_px	     sternalnotch_py	     sternalnotch_pz	   xyphoidprocess_px	   xyphoidprocess_py	   xyphoidprocess_pz	      thighwand_r_px	      thighwand_r_py	      thighwand_r_pz	      thighwand_l_px	      thighwand_l_py	      thighwand_l_pz	      upperleg1_r_px	      upperleg1_r_py	      upperleg1_r_pz	      upperleg1_l_px	      upperleg1_l_py	      upperleg1_l_pz	      upperleg2_r_px	      upperleg2_r_py	      upperleg2_r_pz	      upperleg2_l_px	      upperleg2_l_py	      upperleg2_l_pz	      shankwand_r_px	      shankwand_r_py	      shankwand_r_pz	      shankwand_l_px	      shankwand_l_py	      shankwand_l_pz	      lowerleg1_r_px	      lowerleg1_r_py	      lowerleg1_r_pz	      lowerleg1_l_px	      lowerleg1_l_py	      lowerleg1_l_pz	            toe_r_px	            toe_r_py	            toe_r_pz	            toe_l_px	            toe_l_py	            toe_l_pz	
          0.75000000	          0.66136987	          0.11256854	         -0.15392724	         -0.18080852	         -3.32212920	        -21.86052401	          0.68327226	          0.03263736	         -0.25298351	         -4.58150071	          3.81676560	          0.04418621	         -0.23426052	          0.81780880	          0.83311785	          0.57964078	         -1.75804858	          0.68649499	         21.19910788	          1.20976845	         -4.02889028	        -49.59284507	          6.13306044	          0.00000000	          0.00000000	          2.01019798	          3.17431421	         -4.31707413	         -8.13366644	          5.70657969	          0.00000000	          0.00000000	         -7.09804352	          2.22208776	         -1.64637240	          0.73961840	          0.00000000	         -0.15419861	          0.00000000	         -0.00000000	          0.00000000	          0.76880383	          0.00000000	         -0.25981754	         -3.28688768	        302.06779227	         14.31797320	          0.00000000	          0.00000000	          0.00000000	          0.00000000	         -1.72808997	          0.00000000	          0.78100228	          0.77813510	         -0.23603640	          0.77363143	          0.77718468	         -0.17909134	          0.78837317	          0.77908559	         -0.29298169	          0.86749003	          0.43031841	         -0.15647782	          0.73032284	          0.42518955	         -0.27617046	          0.71822391	          0.11940899	         -0.15602868	          0.73062521	          0.06500360	         -0.26094574	          0.81764443	          0.84937594	         -0.23072601	          0.81885908	          0.85310240	         -0.12084021	          0.81642946	          0.84564935	         -0.34061158	          0.64203577	          0.88482306	         -0.19173201	          0.64426914	          0.88096246	         -0.24558215	          0.87911797	          0.43584276	         -0.09650411	          0.75654762	          0.41530476	         -0.33424135	          0.88606444	          0.43577946	         -0.22319468	          0.75407406	          0.42221790	         -0.21331784	          0.71145277	          0.12257820	         -0.11928057	          0.72202790	          0.06399630	         -0.29640386	          0.71836972	          0.11177949	         -0.18889359	          0.72560062	          0.06774114	         -0.22727877	          0.70996513	          1.27697512	         -0.23474783	          0.81409116	          1.20128733	         -0.18168630	          0.81632070	          1.20148995	         -0.28746198	          0.81242540	          1.20129058	         -0.23771130	          0.81503328	          1.09917112	         -0.24036773	          0.95561260	          0.61137585	         -0.12496568	          0.86083191	          0.56108754	         -0.35819558	          0.89083350	          0.62769638	         -0.09193129	          0.84201722	          0.60968802	         -0.29469721	          0.90148500	          0.57047393	         -0.09784313	          0.83236090	          0.55310152	         -0.28327302	          0.87443091	          0.17502439	         -0.12472462	          0.72413688	          0.16202102	         -0.39038998	          0.79980120	          0.19404750	         -0.14700184	          0.72538288	          0.15780466	         -0.31096987	          0.78656070	          0.07605842	         -0.14597018	          0.81762769	          0.04548033	         -0.26155744	
          0.75833333	          0.69293749	          0.10410552	         -0.15347054	         -0.17494844	         -3.26599093	        -18.74560848	          0.68326203	          0.03272602	         -0.25223973	         -4.54944171	          3.86955936	         -0.20124069	         -0.23475464	          0.82883442	          0.83273710	          0.52479097	         -1.81541500	          0.91948384	         22.03102435	          1.20916198	         -4.15239707	        -47.62760300	          6.52204602	          0.00000000	          0.00000000	          0.91351028	          3.19746372	         -4.13652511	         -7.57861228	          6.05645858	          0.00000000	          0.00000000	         -7.03693062	          2.44665168	         -1.98699258	          0.77031825	          0.00000000	         -0.15435285	          0.00000000	         -0.00000000	         -0.00000000	          0.77400604	          0.00000000	         -0.25942297	         -2.46605860	        309.20248127	         13.18047778	          0.00000000	          0.00000000	          0.00000000	          0.00000000	         -1.88726057	          0.00000000	          0.79177125	          0.77773645	         -0.23624558	          0.78470827	          0.77696590	         -0.17925862	          0.79883410	          0.77850703	         -0.29323274	          0.88206483	          0.43133786	         -0.15740640	          0.73420028	          0.42603061	         -0.27565597	          0.75007907	          0.11306589	         -0.15600599	          0.73095280	          0.06506757	         -0.26047997	          0.82848862	          0.84900929	         -0.23133012	          0.83028499	          0.85307855	         -0.12147414	          0.82669195	          0.84493976	         -0.34118571	          0.65299073	          0.88465487	         -0.19119475	          0.65518846	          0.88059687	         -0.24470341	          0.89560009	          0.43721992	         -0.09738548	          0.76017081	          0.41504347	         -0.33377678	          0.89990353	          0.43681892	         -0.22341163	          0.75783830	          0.42221318	         -0.21367106	          0.74325118	          0.11595587	         -0.11924408	          0.72223549	          0.06415432	         -0.29591155	          0.75082023	          0.10516390	         -0.18879379	          0.72605019	          0.06781404	         -0.22678746	          0.72102063	          1.27644895	         -0.23491731	          0.82519781	          1.20076648	         -0.18161974	          0.82759201	          1.20102928	         -0.28735370	          0.82361929	          1.20079920	         -0.23762832	          0.82631721	          1.09868347	         -0.24033727	          0.96878943	          0.61350534	         -0.12612085	          0.86727265	          0.55924453	         -0.35813425	          0.90395810	          0.62899986	         -0.09250475	          0.84942029	          0.60812453	         -0.29451740	          0.91509707	          0.57183296	         -0.09841325	          0.83866111	          0.55170591	         -0.28325077	          0.90364861	          0.17673920	         -0.12520344	          0.72498078	          0.16198631	         -0.39001891	          0.82826346	          0.19142776	         -0.14726822	          0.72643115	          0.15775863	         -0.31050683	          0.82094927	          0.07385533	         -0.14514126	          0.81776197	          0.04532018	         -0.26121348	
          0.76666667	          0.72688950	          0.09540873	         -0.15251848	         -0.29938755	         -3.14315225	        -15.11975417	          0.68382513	          0.03212068	         -0.25177745	         -4.53203457	          3.86806341	         -0.22394021	         -0.23633445	          0.84002229	          0.83201372	          0.54960215	         -2.08014359	          1.27384064	         22.79156431	          1.30594176	         -4.32149519	        -45.43092460	          7.19740588	          0.00000000	          0.00000000	         -0.23007838	          3.03919502	         -3.82300517	         -7.03851745	          6.61430465	          0.00000000	          0.00000000	         -7.00941917	          2.70204372	         -2.39538108	          0.80098756	          0.00000000	         -0.15450712	          0.00000000	          0.00000000	          0.00000000	          0.77937074	          0.00000000	         -0.25899936	         -1.79803803	        317.30094967	         12.07593301	          0.00000000	         -0.00000000	          0.00000000	          0.00000000	         -2.05486240	          0.00000000	          0.80261403	          0.77708152	         -0.23645959	          0.79583869	          0.77644789	         -0.17943593	          0.80938907	          0.77771516	         -0.29348339	          0.89632909	          0.43178864	         -0.15821309	          0.73796697	          0.42720811	         -0.27513648	          0.78216399	          0.10715101	         -0.15593178	          0.73128062	          0.06517073	         -0.25998505	          0.83937818	          0.84839735	         -0.23187862	          0.84172187	          0.85273022	         -0.12204962	          0.83703418	          0.84406409	         -0.34170706	          0.66402200	          0.88414075	         -0.19068427	          0.66616709	          0.87991240	         -0.24384780	          0.91161559	          0.43824082	         -0.09814408	          0.76386641	          0.41477557	         -0.33329810	          0.91341719	          0.43713344	         -0.22333913	          0.76144198	          0.42237239	         -0.21391642	          0.77522404	          0.10977124	         -0.11917020	          0.72243945	          0.06435319	         -0.29538857	          0.78357618	          0.09893228	         -0.18861318	          0.72652457	          0.06787185	         -0.22626324	          0.73208356	          1.27571084	         -0.23498805	          0.83632338	          1.19996950	         -0.18157136	          0.83883847	          1.20030356	         -0.28727254	          0.83480888	          1.20003879	         -0.23756689	          0.83755281	          1.09792606	         -0.24034101	          0.98166060	          0.61499130	         -0.12728918	          0.87382906	          0.55735320	         -0.35794262	          0.91683170	          0.62977450	         -0.09311214	          0.85702773	          0.60651099	         -0.29406994	          0.92843498	          0.57267885	         -0.09892605	          0.84504759	          0.55030750	         -0.28301211	          0.93261855	          0.17875766	         -0.12538044	          0.72580777	          0.16198945	         -0.38962125	          0.85673629	          0.18894894	         -0.14733138	          0.72749752	          0.15771929	         -0.30996234	          0.85533870	          0.07199690	         -0.14406046	          0.81791100	          0.04516870	         -0.26082913	
          0.77500000	          0.75934299	          0.08770445	         -0.15248918	         -0.12572270	         -3.07374379	        -12.16986447	          0.68389280	          0.03233499	         -0.25159440	         -4.38404034	          3.71055108	         -0.39250762	         -0.23548563	          0.85133445	          0.83140249	          0.55048320	         -1.95442715	          1.46813324	         23.41365647	          1.25219167	         -4.39301812	        -43.20901550	          7.30829955	          0.00000000	          0.00000000	         -1.43576942	          3.12280217	         -3.48876194	         -6.44072533	          7.05294767	          0.00000000	          0.00000000	         -7.05684325	          2.87013111	         -2.68794996	          0.83154327	          0.00000000	         -0.15466094	         -0.00000000	         -0.00000000	         -0.00000000	          0.78491542	          0.00000000	         -0.25857419	         -1.19278576	        325.79757957	         11.15508124	          0.00000000	          0.00000000	          0.00000000	          0.00000000	         -2.22559659	          0.00000000	          0.81355129	          0.77618834	         -0.23666517	          0.80704181	          0.77564806	         -0.17960957	          0.82006035	          0.77672860	         -0.29372080	          0.91048387	          0.43165917	         -0.15885479	          0.74166101	          0.42866409	         -0.27463613	          0.81440143	          0.10174758	         -0.15580543	          0.73160089	          0.06530733	         -0.25945890	          0.85032394	          0.84756013	         -0.23235816	          0.85317334	          0.85207818	         -0.12254837	          0.84747420	          0.84304162	         -0.34216728	          0.67513814	          0.88328096	         -0.19018760	          0.67720374	          0.87892414	         -0.24302877	          0.92719001	          0.43890151	         -0.09874983	          0.76762748	          0.41450685	         -0.33282011	          0.92679281	          0.43675674	         -0.22303571	          0.76498598	          0.42269155	         -0.21399273	          0.80729034	          0.10409884	         -0.11905895	          0.72263735	          0.06458538	         -0.29483401	          0.81653252	          0.09323039	         -0.18836543	          0.72700836	          0.06792657	         -0.22570671	          0.74316482	          1.27476524	         -0.23497313	          0.84747243	          1.19890662	         -0.18156752	          0.85005089	          1.19931664	         -0.28724504	          0.84599145	          1.19901634	         -0.23755307	          0.84873235	          1.09690552	         -0.24039927	          0.99424454	          0.61584115	         -0.12847396	          0.88049594	          0.55541054	         -0.35764106	          0.92947280	          0.63000340	         -0.09374985	          0.86484906	          0.60483105	         -0.29339461	          0.94156503	          0.57303656	         -0.09939595	          0.85154677	          0.54888561	         -0.28257175	          0.96124802	          0.18110090	         -0.12524174	          0.72663309	          0.16203574	         -0.38920559	          0.88514633	          0.18672270	         -0.14717090	          0.72858077	          0.15769316	         -0.30935375	          0.88964463	          0.07055454	         -0.14278466	          0.81807949	          0.04503052	         -0.26041697	
